<svg version="1.1" id="Layer_1" xmlns="http://www.w3.org/2000/svg" xmlns:xlink="http://www.w3.org/1999/xlink" x="0px" y="0px"
	 width="100%" viewBox="0 0 216 130" enable-background="new 0 0 216 130" xml:space="preserve">
<path fill="#FFFFFF" opacity="1.000000" stroke="none" 
	d="
M158.000000,131.000000 
	C105.371048,131.000000 53.242100,131.000000 1.056575,131.000000 
	C1.056575,87.735779 1.056575,44.471458 1.056575,1.103570 
	C72.878761,1.103570 144.757721,1.103570 216.818344,1.103570 
	C216.818344,44.332699 216.818344,87.666298 216.818344,131.000000 
	C197.471771,131.000000 177.985886,131.000000 158.000000,131.000000 
M77.148834,61.529385 
	C76.802116,61.522472 76.455391,61.515556 75.487930,61.236927 
	C73.341087,62.168789 71.194237,63.100651 68.538300,63.706131 
	C68.352180,63.146027 68.166061,62.585922 68.350792,61.478127 
	C68.681320,60.827354 69.011856,60.176586 69.342384,59.525814 
	C67.922432,59.795567 66.094284,59.594292 65.149849,60.412743 
	C59.683907,65.149567 58.218311,71.691536 58.065228,78.495590 
	C57.882084,86.635735 56.588387,95.023201 62.302235,102.473427 
	C62.764240,102.394516 63.874512,102.204887 65.025063,102.822319 
	C66.240433,103.549225 67.397972,104.409203 68.685966,104.969002 
	C70.259834,105.653038 71.952499,106.058830 73.576843,106.632858 
	C75.735649,107.395775 77.878098,108.204948 80.542580,109.183357 
	C82.143822,114.830650 87.354134,111.415901 91.065361,111.872177 
	C95.388664,112.403717 99.827408,111.996239 104.636230,111.996239 
	C104.819527,111.197060 105.138123,109.807991 105.207947,109.503555 
	C108.074593,108.093872 110.057335,107.118851 112.494675,106.129684 
	C112.494675,106.129684 112.946770,106.184166 112.972862,107.025764 
	C113.058533,108.916458 113.144211,110.807152 113.229095,112.680336 
	C116.987473,112.205208 120.016174,111.786713 123.053810,111.448532 
	C125.967293,111.124176 128.890045,110.883133 132.144196,110.573563 
	C134.440186,109.001190 137.301834,106.902382 140.312256,105.044685 
	C141.610550,104.243523 143.216736,103.941292 144.683044,103.412407 
	C143.832977,101.987991 142.982925,100.563576 142.704071,98.975937 
	C143.133820,98.391953 143.563553,97.807961 144.667542,96.955322 
	C146.494507,96.645332 148.321457,96.335350 149.822418,96.080681 
	C150.360275,94.283768 150.752075,92.337914 151.530090,90.561172 
	C152.255585,88.904404 153.551331,87.501648 154.315872,85.856842 
	C156.286636,81.617027 153.658691,75.225838 149.700775,74.624550 
	C145.441956,69.459892 141.183136,64.295235 136.979065,58.251015 
	C136.916519,54.861019 137.602554,51.212730 136.550629,48.164120 
	C135.733688,45.796524 138.313019,41.114456 132.795929,40.136753 
	C132.836029,37.751949 132.876129,35.367146 133.425766,32.945011 
	C133.697098,32.790936 133.968430,32.636864 134.239761,32.482788 
	C133.791733,32.329124 133.343704,32.175461 132.569702,31.394464 
	C131.752335,26.996012 127.570442,28.672411 124.305740,27.095669 
	C123.230583,27.038250 122.155418,26.980831 121.064697,26.478958 
	C121.064697,26.478958 120.853088,26.087797 120.644951,25.652407 
	C120.068367,25.739899 119.491783,25.827393 118.210701,25.651358 
	C113.814568,25.175880 109.418427,24.700401 104.162643,24.092999 
	C101.102631,24.443459 98.042610,24.793919 94.094948,25.063885 
	C92.001373,25.238697 89.893555,25.314138 87.817535,25.611517 
	C84.671532,26.062166 81.155586,25.977222 79.541519,30.693974 
	C79.328430,39.109383 79.180244,47.527321 78.852478,55.938259 
	C78.778900,57.826176 78.077271,59.689613 77.148834,61.529385 
M127.049721,112.162437 
	C127.200157,112.413582 127.302238,112.795784 127.516212,112.874756 
	C127.689865,112.938850 127.997894,112.638832 128.246323,112.500305 
	C127.997597,112.361320 127.748863,112.222328 127.049721,112.162437 
z"/>
<path fill="#F1F8F8" opacity="1.000000" stroke="none" 
	d="
M64.984787,102.015259 
	C63.874512,102.204887 62.764240,102.394516 62.302235,102.473427 
	C56.588387,95.023201 57.882084,86.635735 58.065228,78.495590 
	C58.218311,71.691536 59.683907,65.149567 65.149849,60.412743 
	C66.094284,59.594292 67.922432,59.795567 69.342384,59.525814 
	C69.011856,60.176586 68.681320,60.827354 67.862198,61.880463 
	C66.594749,63.215652 65.815887,64.148506 64.961349,65.482330 
	C64.688858,70.298874 64.492043,74.714455 64.226181,79.521652 
	C64.176262,84.929070 64.195396,89.944870 64.123505,95.330437 
	C64.058907,96.713982 64.085320,97.727760 64.139511,99.001991 
	C64.388016,99.523102 64.608727,99.783760 64.887871,100.048599 
	C64.946304,100.052773 64.959740,100.169159 64.965134,100.473572 
	C64.981964,101.183701 64.993401,101.589424 65.001022,101.998970 
	C64.997208,102.002792 64.984787,102.015259 64.984787,102.015259 
z"/>
<path fill="#F1F8F8" opacity="1.000000" stroke="none" 
	d="
M112.040085,106.143822 
	C110.057335,107.118851 108.074593,108.093872 105.207947,109.503555 
	C105.138123,109.807991 104.819527,111.197060 104.636230,111.996239 
	C99.827408,111.996239 95.388664,112.403717 91.065361,111.872177 
	C87.354134,111.415901 82.143822,114.830650 80.542580,109.183357 
	C77.878098,108.204948 75.735649,107.395775 73.576843,106.632858 
	C71.952499,106.058830 70.259834,105.653038 68.685966,104.969002 
	C67.397972,104.409203 66.240433,103.549225 65.004929,102.418793 
	C64.984787,102.015259 64.997208,102.002792 65.302292,102.007355 
	C66.009277,102.013039 66.411179,102.014160 67.104584,102.277771 
	C73.262238,103.578484 79.128365,104.616684 85.397171,105.788406 
	C94.186073,107.430092 102.283852,106.487465 110.408234,103.027077 
	C111.153419,103.011856 111.579895,103.032661 111.880432,103.324593 
	C111.849693,104.445084 111.944893,105.294456 112.040085,106.143822 
z"/>
<path fill="#8DD5F5" opacity="1.000000" stroke="none" 
	d="
M69.047394,64.032509 
	C71.194237,63.100651 73.341087,62.168789 75.773254,61.519039 
	C76.058571,61.801151 75.978516,62.085182 75.637070,62.096191 
	C74.682320,62.456299 74.069023,62.805393 73.455727,63.154495 
	C74.294807,63.525833 75.133896,63.897167 76.164185,64.492325 
	C76.927483,64.790909 77.499580,64.865669 78.390320,64.953369 
	C79.136482,64.988220 79.563995,65.010124 80.048553,65.402901 
	C81.593498,66.502617 83.031975,67.368004 84.580765,67.928665 
	C86.969467,68.793373 89.433731,69.449371 91.882790,70.542618 
	C91.961029,71.590233 92.022423,72.289131 92.085968,73.387238 
	C92.937737,77.229774 93.787354,80.673096 94.709000,84.351448 
	C94.781036,84.586472 94.903313,85.062653 94.896042,85.377853 
	C94.902786,86.112442 94.916817,86.531822 94.655853,87.178070 
	C93.576721,90.257324 92.772560,93.109711 91.721420,95.787483 
	C91.005638,94.748138 90.536835,93.883415 89.818222,93.012505 
	C89.568405,93.006317 89.068680,93.013771 89.094368,92.597855 
	C89.206062,87.309631 88.926933,82.394417 89.492950,77.578537 
	C89.950348,73.686790 88.094620,72.525352 84.976395,72.040413 
	C80.012856,71.268517 75.039246,70.561356 70.073204,69.486839 
	C69.733467,67.442078 69.390434,65.737297 69.047394,64.032509 
z"/>
<path fill="#F1F8F8" opacity="1.000000" stroke="none" 
	d="
M142.132858,99.139160 
	C142.982925,100.563576 143.832977,101.987991 144.683044,103.412407 
	C143.216736,103.941292 141.610550,104.243523 140.312256,105.044685 
	C137.301834,106.902382 134.440186,109.001190 132.144196,110.573563 
	C128.890045,110.883133 125.967293,111.124176 123.053810,111.448532 
	C120.016174,111.786713 116.987473,112.205208 113.229095,112.680336 
	C113.144211,110.807152 113.058533,108.916458 113.245071,106.721146 
	C114.102859,106.797386 114.688446,107.178238 115.274017,107.559090 
	C115.540840,106.745323 115.807663,105.931557 116.247414,105.091400 
	C116.420341,105.064995 116.771149,105.055634 116.867722,105.387962 
	C117.666527,106.101036 118.368752,106.481773 119.437904,106.932442 
	C128.412186,107.687744 136.008789,105.593025 141.997345,98.997421 
	C142.042770,99.044426 142.132858,99.139160 142.132858,99.139160 
z"/>
<path fill="#DEEFF8" opacity="1.000000" stroke="none" 
	d="
M68.792847,63.869320 
	C69.390434,65.737297 69.733467,67.442078 70.029915,69.833252 
	C69.958748,70.750267 69.934181,70.980904 69.616959,71.423508 
	C68.905525,76.331406 68.120293,81.028641 68.137047,85.723015 
	C68.186226,99.507011 65.523506,98.063423 81.113342,101.322838 
	C83.257942,102.068459 85.204369,102.563820 86.975197,103.323242 
	C86.198410,103.767975 85.597214,103.948654 84.588959,104.078285 
	C82.629532,103.633904 81.096420,103.034012 79.521072,102.887093 
	C75.294731,102.492920 71.050308,102.292587 66.813072,102.015274 
	C66.411179,102.014160 66.009277,102.013039 65.306114,102.003532 
	C64.993401,101.589424 64.981964,101.183701 65.299210,100.423416 
	C65.740761,98.375252 65.853630,96.681656 66.003204,94.523209 
	C66.001160,89.045403 65.962402,84.032440 65.995605,78.577362 
	C66.320694,74.722443 66.713707,71.310539 66.735397,67.896286 
	C66.741333,66.961617 65.633659,66.019867 65.037018,65.081367 
	C65.815887,64.148506 66.594749,63.215652 67.676781,62.154308 
	C68.166061,62.585922 68.352180,63.146027 68.792847,63.869320 
z"/>
<path fill="#1BA4DB" opacity="1.000000" stroke="none" 
	d="
M132.916229,32.982342 
	C132.876129,35.367146 132.836029,37.751949 132.753632,41.004784 
	C132.769211,43.896744 132.827087,45.920666 132.829025,48.196770 
	C132.784683,48.620770 132.796310,48.792583 132.603424,49.274597 
	C131.675613,51.423061 130.952316,53.261333 129.978531,55.056290 
	C129.559082,54.999802 129.390137,54.986626 129.139557,54.530273 
	C128.961884,51.383251 128.865829,48.679405 128.825119,45.578186 
	C128.843796,44.113777 128.807129,43.046745 128.807785,41.741234 
	C128.845108,41.502750 128.722412,41.035835 128.771088,40.649906 
	C128.790787,39.488914 128.761780,38.713848 128.805237,37.530640 
	C128.874985,35.737320 128.872284,34.352139 128.906815,32.609909 
	C127.989548,31.814726 127.035049,31.376598 125.983025,30.714752 
	C125.739929,30.183340 125.512962,29.957428 125.180595,29.494259 
	C125.137909,28.536047 125.119225,27.896873 125.100540,27.257702 
	C127.570442,28.672411 131.752335,26.996012 132.668991,31.949741 
	C132.768280,32.505020 132.916229,32.982342 132.916229,32.982342 
z"/>
<path fill="#32ADE2" opacity="1.000000" stroke="none" 
	d="
M129.221176,54.973454 
	C129.390137,54.986626 129.559082,54.999802 130.160843,55.323013 
	C132.703873,56.798897 134.814087,57.964737 136.924316,59.130577 
	C141.183136,64.295235 145.441956,69.459892 149.936584,75.151825 
	C150.774628,76.798195 151.376862,77.917290 151.731552,79.131172 
	C151.018265,79.475021 150.552521,79.724083 149.893097,79.713631 
	C148.140625,77.669128 146.581833,75.884132 145.002640,73.742172 
	C141.020218,68.996536 137.058182,64.607872 132.784882,60.151669 
	C131.975372,59.740318 131.477142,59.396515 130.945450,58.728619 
	C130.306915,57.354614 129.701828,56.304703 129.098419,55.171436 
	C129.100082,55.088081 129.221176,54.973454 129.221176,54.973454 
z"/>
<path fill="#B3E6F6" opacity="1.000000" stroke="none" 
	d="
M151.979095,79.036385 
	C151.376862,77.917290 150.774628,76.798195 150.078888,75.367905 
	C153.658691,75.225838 156.286636,81.617027 154.315872,85.856842 
	C153.551331,87.501648 152.255585,88.904404 151.530090,90.561172 
	C150.752075,92.337914 150.360275,94.283768 149.822418,96.080681 
	C148.321457,96.335350 146.494507,96.645332 144.295044,96.928055 
	C143.922562,96.900780 143.927734,96.569977 144.060287,96.297966 
	C145.034851,94.861595 145.876862,93.697235 146.718872,92.532875 
	C146.480759,92.353951 146.242645,92.175026 146.004532,91.996101 
	C144.045319,93.348473 142.086121,94.700836 140.046387,95.701744 
	C142.841492,92.890030 145.750137,90.466240 148.553528,87.926270 
	C148.930237,87.584938 148.776154,86.657761 149.238846,85.955513 
	C150.103699,85.851227 150.597565,85.793297 151.381607,85.612823 
	C151.772659,84.650253 151.873550,83.810226 152.270187,82.824112 
	C152.370316,81.464149 152.174698,80.250267 151.979095,79.036385 
z"/>
<path fill="#6BC9EC" opacity="1.000000" stroke="none" 
	d="
M124.703140,27.176685 
	C125.119225,27.896873 125.137909,28.536047 124.823158,29.589607 
	C120.984337,30.670500 117.478966,31.337006 113.651215,31.860023 
	C109.556938,30.754053 105.785034,29.791571 102.230110,28.589169 
	C103.597641,27.924927 104.748192,27.500603 106.362625,27.040337 
	C108.970924,27.026424 111.115547,27.077539 113.259720,27.063025 
	C115.866760,27.045380 118.473434,26.972437 121.080261,26.923412 
	C122.155418,26.980831 123.230583,27.038250 124.703140,27.176685 
z"/>
<path fill="#DBEFF6" opacity="1.000000" stroke="none" 
	d="
M136.951691,58.690796 
	C134.814087,57.964737 132.703873,56.798897 130.411331,55.366333 
	C130.952316,53.261333 131.675613,51.423061 132.802155,49.202637 
	C133.295380,48.714249 133.475830,48.530014 133.461700,48.513615 
	C133.285889,48.309765 133.081802,48.130318 132.884979,47.944595 
	C132.827087,45.920666 132.769211,43.896744 132.809586,41.448788 
	C138.313019,41.114456 135.733688,45.796524 136.550629,48.164120 
	C137.602554,51.212730 136.916519,54.861019 136.951691,58.690796 
z"/>
<path fill="#3DADE4" opacity="1.000000" stroke="none" 
	d="
M80.013542,30.020927 
	C81.155586,25.977222 84.671532,26.062166 87.817535,25.611517 
	C89.893555,25.314138 92.001373,25.238697 94.291481,25.338829 
	C93.001541,26.283466 91.515060,26.953156 89.720428,27.727436 
	C88.816414,27.969137 88.220566,28.106249 86.590691,28.481304 
	C88.342430,28.876257 89.096558,29.046286 89.859894,29.439232 
	C89.097122,30.107092 88.325150,30.552031 87.281860,30.715630 
	C85.334167,30.952173 83.657791,31.470058 81.765007,32.019871 
	C81.548592,32.051800 81.112671,32.088963 80.856201,31.916069 
	C80.404327,31.169094 80.208931,30.595011 80.013542,30.020927 
z"/>
<path fill="#1CA6E1" opacity="1.000000" stroke="none" 
	d="
M121.072479,26.701187 
	C118.473434,26.972437 115.866760,27.045380 113.259720,27.063025 
	C111.115547,27.077539 108.970924,27.026424 106.138771,26.988420 
	C105.451042,26.972445 105.004753,26.861834 104.999283,26.532166 
	C105.003304,25.543304 105.012802,24.884113 105.022293,24.224922 
	C109.418427,24.700401 113.814568,25.175880 118.881966,25.847576 
	C119.986519,26.058460 120.419800,26.073130 120.853088,26.087797 
	C120.853088,26.087797 121.064697,26.478958 121.072479,26.701187 
z"/>
<path fill="#28AADC" opacity="1.000000" stroke="none" 
	d="
M104.592468,24.158960 
	C105.012802,24.884113 105.003304,25.543304 104.541977,26.595137 
	C99.402954,27.199469 94.715775,27.411160 90.028587,27.622849 
	C91.515060,26.953156 93.001541,26.283466 94.735306,25.379078 
	C98.042610,24.793919 101.102631,24.443459 104.592468,24.158960 
z"/>
<path fill="#62B8E2" opacity="1.000000" stroke="none" 
	d="
M79.777527,30.357452 
	C80.208931,30.595011 80.404327,31.169094 80.788071,32.168663 
	C80.950111,32.766830 80.923805,32.939514 80.589706,33.382545 
	C80.173927,43.083412 80.065948,52.513927 79.975082,61.952751 
	C79.992195,61.961060 79.957619,61.968170 79.639648,61.975861 
	C78.899315,62.007664 78.476952,62.031776 77.954300,61.935238 
	C77.854019,61.814587 77.664764,61.564320 77.664764,61.564320 
	C78.077271,59.689613 78.778900,57.826176 78.852478,55.938259 
	C79.180244,47.527321 79.328430,39.109383 79.777527,30.357452 
z"/>
<path fill="#CEE6F0" opacity="1.000000" stroke="none" 
	d="
M116.074493,105.117798 
	C115.807663,105.931557 115.540840,106.745323 115.274017,107.559090 
	C114.688446,107.178238 114.102859,106.797386 113.232025,106.300354 
	C112.946770,106.184166 112.494675,106.129684 112.267380,106.136749 
	C111.944893,105.294456 111.849693,104.445084 111.870148,102.995575 
	C111.808762,101.993713 111.631706,101.592003 111.801514,101.202499 
	C112.790054,101.455734 113.431747,101.696747 114.080498,101.945847 
	C114.087563,101.953926 114.119392,101.937408 114.124207,102.263824 
	C114.777512,103.432755 115.426003,104.275276 116.074493,105.117798 
z"/>
<path fill="#62B8E2" opacity="1.000000" stroke="none" 
	d="
M78.071671,64.940430 
	C77.499580,64.865669 76.927483,64.790909 76.199539,64.126915 
	C76.021973,63.053520 76.000244,62.569351 75.978516,62.085182 
	C75.978516,62.085182 76.058571,61.801151 76.083618,61.654900 
	C76.455391,61.515556 76.802116,61.522472 77.406799,61.546852 
	C77.664764,61.564320 77.854019,61.814587 77.919464,62.293835 
	C78.013832,63.495533 78.042755,64.217979 78.071671,64.940430 
z"/>
<path fill="#F1F8F8" opacity="1.000000" stroke="none" 
	d="
M143.957916,97.062378 
	C143.563553,97.807961 143.133820,98.391953 142.418457,99.057549 
	C142.132858,99.139160 142.042770,99.044426 142.126663,98.713882 
	C142.782944,97.778885 143.355331,97.174431 143.927734,96.569977 
	C143.927734,96.569977 143.922562,96.900780 143.957916,97.062378 
z"/>
<path fill="#F1F8F8" opacity="1.000000" stroke="none" 
	d="
M127.274933,112.122894 
	C127.748863,112.222328 127.997597,112.361320 128.246323,112.500305 
	C127.997894,112.638832 127.689865,112.938850 127.516212,112.874756 
	C127.302238,112.795784 127.200157,112.413582 127.274933,112.122894 
z"/>
<path fill="#6BC9EC" opacity="1.000000" stroke="none" 
	d="
M120.749023,25.870102 
	C120.419800,26.073130 119.986519,26.058460 119.234215,25.979340 
	C119.491783,25.827393 120.068367,25.739899 120.749023,25.870102 
z"/>
<path fill="#DBEFF6" opacity="1.000000" stroke="none" 
	d="
M133.170990,32.963676 
	C132.916229,32.982342 132.768280,32.505020 132.831970,32.263409 
	C133.343704,32.175461 133.791733,32.329124 134.239761,32.482788 
	C133.968430,32.636864 133.697098,32.790936 133.170990,32.963676 
z"/>
<path fill="#46B3E0" opacity="1.000000" stroke="none" 
	d="
M64.961349,65.482330 
	C65.633659,66.019867 66.741333,66.961617 66.735397,67.896286 
	C66.713707,71.310539 66.320694,74.722443 65.587837,78.594543 
	C64.837151,79.079247 64.566185,79.104637 64.295227,79.130035 
	C64.492043,74.714455 64.688858,70.298874 64.961349,65.482330 
z"/>
<path fill="#24A8DE" opacity="1.000000" stroke="none" 
	d="
M64.226181,79.521652 
	C64.566185,79.104637 64.837151,79.079247 65.515877,79.036667 
	C65.962402,84.032440 66.001160,89.045403 65.711121,94.528709 
	C64.993050,94.986259 64.603790,94.973465 64.214523,94.960670 
	C64.195396,89.944870 64.176262,84.929070 64.226181,79.521652 
z"/>
<path fill="#46B3E0" opacity="1.000000" stroke="none" 
	d="
M64.123505,95.330437 
	C64.603790,94.973465 64.993050,94.986259 65.674408,94.993561 
	C65.853630,96.681656 65.740761,98.375252 65.293816,100.119003 
	C64.959740,100.169159 64.946304,100.052773 64.834114,99.797668 
	C64.518524,99.275558 64.315125,99.008553 64.111725,98.741539 
	C64.085320,97.727760 64.058907,96.713982 64.123505,95.330437 
z"/>
<path fill="#DEEFF8" opacity="1.000000" stroke="none" 
	d="
M64.139511,99.001991 
	C64.315125,99.008553 64.518524,99.275558 64.775681,99.793495 
	C64.608727,99.783760 64.388016,99.523102 64.139511,99.001991 
z"/>
<path fill="#36ADDF" opacity="1.000000" stroke="none" 
	d="
M84.996025,104.129333 
	C85.597214,103.948654 86.198410,103.767975 87.313011,103.297653 
	C88.562851,102.367584 89.299278,101.727150 90.242569,101.074615 
	C90.449432,101.062508 90.864296,101.054527 90.933029,101.386528 
	C91.718407,102.104347 92.435059,102.490158 93.498360,103.073410 
	C98.854202,102.786346 103.863411,102.301834 109.018509,102.076309 
	C109.472786,102.577896 109.781158,102.820503 110.089531,103.063110 
	C102.283852,106.487465 94.186073,107.430092 85.396294,105.534439 
	C84.993835,104.807747 84.994934,104.468544 84.996025,104.129333 
z"/>
<path fill="#2EA9E3" opacity="1.000000" stroke="none" 
	d="
M84.588959,104.078285 
	C84.994934,104.468544 84.993835,104.807747 84.993622,105.400925 
	C79.128365,104.616684 73.262238,103.578484 67.104584,102.277771 
	C71.050308,102.292587 75.294731,102.492920 79.521072,102.887093 
	C81.096420,103.034012 82.629532,103.633904 84.588959,104.078285 
z"/>
<path fill="#1E9EE7" opacity="1.000000" stroke="none" 
	d="
M110.408234,103.027084 
	C109.781158,102.820503 109.472786,102.577896 108.880112,101.854385 
	C108.020081,100.978600 107.444351,100.583725 106.904449,99.810181 
	C106.969627,98.925766 106.998978,98.420013 107.242973,97.953903 
	C107.457626,97.993553 107.891891,98.038345 108.084030,98.280861 
	C109.335670,99.412346 110.395164,100.301323 111.454659,101.190292 
	C111.631706,101.592003 111.808762,101.993713 111.996094,102.724442 
	C111.579895,103.032661 111.153419,103.011856 110.408234,103.027084 
z"/>
<path fill="#DDFAFC" opacity="1.000000" stroke="none" 
	d="
M69.909607,71.211540 
	C69.934181,70.980904 69.958748,70.750267 70.026611,70.173218 
	C75.039246,70.561356 80.012856,71.268517 84.976395,72.040413 
	C88.094620,72.525352 89.950348,73.686790 89.492950,77.578537 
	C88.926933,82.394417 89.206062,87.309631 88.744400,92.562508 
	C87.195343,92.034279 86.021942,91.125481 84.763290,90.150650 
	C84.020195,92.391853 83.458038,94.087364 82.519104,95.769836 
	C79.827217,95.470940 77.512093,95.185081 75.137985,94.565125 
	C74.669167,93.648315 74.259331,93.065590 73.849495,92.482872 
	C73.574890,93.322823 73.300278,94.162781 72.791229,95.266205 
	C71.693619,94.317070 70.200478,93.160210 70.087318,91.881241 
	C69.768600,88.279060 70.017273,84.626678 70.404282,80.928551 
	C73.610184,78.766945 73.154793,76.234673 71.673439,73.553284 
	C71.133644,75.027802 70.593842,76.502312 70.031128,77.549187 
	C69.975334,75.151550 69.942474,73.181541 69.909607,71.211540 
z"/>
<path fill="#64C3F2" opacity="1.000000" stroke="none" 
	d="
M91.968399,95.962105 
	C92.772560,93.109711 93.576721,90.257324 94.984406,87.191055 
	C96.024055,86.994766 96.460190,87.012344 96.945374,87.384933 
	C99.312881,90.843918 101.631332,93.947899 103.992271,97.372513 
	C104.366447,98.487473 104.698143,99.281799 104.766342,100.339317 
	C102.007736,101.009254 99.512611,101.416000 97.056450,101.535217 
	C97.218979,100.484146 97.679459,99.218536 97.411362,99.038628 
	C95.685890,97.880722 93.800972,96.960419 91.968399,95.962105 
z"/>
<path fill="#3AB4DB" opacity="1.000000" stroke="none" 
	d="
M96.896317,87.029930 
	C96.460190,87.012344 96.024055,86.994766 95.259384,86.964195 
	C94.916817,86.531822 94.902786,86.112442 95.086075,85.261253 
	C95.067909,84.591782 94.852432,84.354103 94.636963,84.116425 
	C93.787354,80.673096 92.937737,77.229774 92.448830,73.392349 
	C93.538368,73.000160 94.267204,73.002060 94.992081,73.372360 
	C94.719490,75.226479 94.450859,76.712196 94.182228,78.197922 
	C94.719757,78.202415 95.257286,78.206909 95.794815,78.211395 
	C95.531029,76.473534 95.267242,74.735672 95.110573,72.740280 
	C95.481056,71.992622 95.744415,71.502510 96.348442,71.006088 
	C97.142860,70.978264 97.596603,70.956741 98.287445,71.132492 
	C98.709251,71.912163 98.893959,72.494576 99.037254,73.045258 
	C98.995842,73.013527 99.082481,73.067017 98.733093,73.083359 
	C97.941536,73.807518 97.499367,74.515327 97.220840,75.474129 
	C97.941307,75.907425 98.498138,76.089737 99.204399,76.460762 
	C99.604462,76.864044 99.890450,77.008789 100.158981,77.494926 
	C100.364212,79.979034 100.622269,82.051918 100.895462,84.352875 
	C100.910591,84.580933 100.971481,85.033989 100.884247,85.217285 
	C100.660378,85.651413 100.456055,85.820381 100.033524,85.731369 
	C99.410240,85.961777 98.937462,86.368309 98.073227,86.842514 
	C97.419945,86.950096 97.158134,86.990013 96.896317,87.029930 
z"/>
<path fill="#32A9E4" opacity="1.000000" stroke="none" 
	d="
M98.050354,70.935226 
	C97.596603,70.956741 97.142860,70.978264 96.029495,70.960342 
	C94.201904,70.678566 93.033920,70.436234 91.865944,70.193901 
	C89.433731,69.449371 86.969467,68.793373 84.580765,67.928665 
	C83.031975,67.368004 81.593498,66.502617 80.052505,65.019211 
	C79.985489,63.499165 79.971550,62.733669 79.957619,61.968170 
	C79.957619,61.968170 79.992195,61.961060 80.247688,61.978951 
	C80.685646,61.994034 80.868111,61.991226 81.222595,62.069851 
	C81.394608,62.151279 81.750336,62.286713 81.809761,62.571625 
	C82.240898,63.246586 82.612617,63.636642 83.263107,64.290871 
	C88.323975,65.453346 93.106064,66.351646 97.921814,67.427681 
	C97.955475,67.605408 98.028748,67.959694 98.020706,68.332809 
	C98.025223,69.449028 98.037788,70.192131 98.050354,70.935226 
z"/>
<path fill="#6BC8E9" opacity="1.000000" stroke="none" 
	d="
M91.721420,95.787483 
	C93.800972,96.960419 95.685890,97.880722 97.411362,99.038628 
	C97.679459,99.218536 97.218979,100.484146 96.747177,101.499763 
	C95.617661,101.519829 94.836388,101.287811 94.024475,101.029884 
	C93.993843,101.003967 93.929108,100.956535 93.727188,100.696671 
	C92.362076,100.653435 91.198891,100.870071 90.035706,101.086716 
	C89.299278,101.727150 88.562851,102.367584 87.488609,103.033600 
	C85.204369,102.563820 83.257942,102.068459 81.362961,101.028198 
	C83.271797,99.653778 85.129181,98.824257 87.379112,97.983910 
	C88.537117,96.321617 89.302574,94.670151 90.068039,93.018692 
	C90.536835,93.883415 91.005638,94.748138 91.721420,95.787483 
z"/>
<path fill="#98DBF5" opacity="1.000000" stroke="none" 
	d="
M89.818222,93.012505 
	C89.302574,94.670151 88.537117,96.321617 86.986084,98.032440 
	C83.831985,98.466843 81.463455,98.841873 78.800346,99.263550 
	C79.604729,96.713737 84.022400,100.051178 82.895874,95.782867 
	C83.458038,94.087364 84.020195,92.391853 84.763290,90.150650 
	C86.021942,91.125481 87.195343,92.034279 88.718712,92.978424 
	C89.068680,93.013771 89.568405,93.006317 89.818222,93.012505 
z"/>
<path fill="#34ABDC" opacity="1.000000" stroke="none" 
	d="
M91.882790,70.542618 
	C93.033920,70.436234 94.201904,70.678566 95.688828,70.966644 
	C95.744415,71.502510 95.481056,71.992622 95.108833,72.741379 
	C94.999969,73.000023 94.996033,73.003967 94.996033,73.003967 
	C94.267204,73.002060 93.538368,73.000160 92.446686,72.993149 
	C92.022423,72.289131 91.961029,71.590233 91.882790,70.542618 
z"/>
<path fill="#1CA5E1" opacity="1.000000" stroke="none" 
	d="
M79.639648,61.975861 
	C79.971550,62.733669 79.985489,63.499165 79.995468,64.648346 
	C79.563995,65.010124 79.136482,64.988220 78.390320,64.953369 
	C78.042755,64.217979 78.013832,63.495533 78.019745,62.414486 
	C78.476952,62.031776 78.899315,62.007664 79.639648,61.975861 
z"/>
<path fill="#1CA5E1" opacity="1.000000" stroke="none" 
	d="
M75.637070,62.096191 
	C76.000244,62.569351 76.021973,63.053520 76.008339,63.903095 
	C75.133896,63.897167 74.294807,63.525833 73.455727,63.154495 
	C74.069023,62.805393 74.682320,62.456299 75.637070,62.096191 
z"/>
<path fill="#34ABDC" opacity="1.000000" stroke="none" 
	d="
M94.709000,84.351448 
	C94.852432,84.354103 95.067909,84.591782 95.093353,84.946053 
	C94.903313,85.062653 94.781036,84.586472 94.709000,84.351448 
z"/>
<path fill="#2EACDF" opacity="1.000000" stroke="none" 
	d="
M144.060287,96.297958 
	C143.355331,97.174431 142.782944,97.778885 142.081238,98.666878 
	C136.008789,105.593025 128.412186,107.687744 119.587624,106.648598 
	C120.961555,104.937447 122.552681,103.580070 124.505112,102.238998 
	C127.234383,102.120804 129.696609,101.524078 131.943680,101.982361 
	C134.171326,102.436676 135.361069,102.671547 135.380737,99.912521 
	C137.172470,98.633034 138.602875,97.340698 140.057037,96.040672 
	C140.080811,96.032974 140.126907,96.053200 140.126907,96.053207 
	C142.086121,94.700836 144.045319,93.348473 146.004532,91.996101 
	C146.242645,92.175026 146.480759,92.353951 146.718872,92.532875 
	C145.876862,93.697235 145.034851,94.861595 144.060287,96.297958 
z"/>
<path fill="#54B9E5" opacity="1.000000" stroke="none" 
	d="
M124.143814,102.222702 
	C122.552681,103.580070 120.961555,104.937447 119.220703,106.578667 
	C118.368752,106.481773 117.666527,106.101036 117.002014,105.116203 
	C117.360451,104.010048 117.681175,103.507980 118.166916,102.706734 
	C120.531403,99.902313 122.730881,97.397079 125.180634,95.094040 
	C124.663902,96.982544 123.787453,98.632294 123.203903,100.379852 
	C123.050797,100.838387 123.805832,101.600182 124.143814,102.222702 
z"/>
<path fill="#C0EEF9" opacity="1.000000" stroke="none" 
	d="
M118.001892,103.005913 
	C117.681175,103.507980 117.360451,104.010048 116.905441,104.783875 
	C116.771149,105.055634 116.420341,105.064995 116.247421,105.091400 
	C115.426003,104.275276 114.777512,103.432755 114.424561,102.425781 
	C115.814034,102.509521 116.907959,102.757713 118.001892,103.005913 
z"/>
<path fill="#90DBF5" opacity="1.000000" stroke="none" 
	d="
M82.519104,95.769836 
	C84.022400,100.051178 79.604729,96.713737 78.800346,99.263550 
	C81.463455,98.841873 83.831985,98.466843 86.593536,98.043274 
	C85.129181,98.824257 83.271797,99.653778 81.164780,100.777939 
	C65.523506,98.063423 68.186226,99.507011 68.137047,85.723015 
	C68.120293,81.028641 68.905525,76.331406 69.616959,71.423508 
	C69.942474,73.181541 69.975334,75.151550 70.002060,77.926544 
	C70.011375,79.485718 70.026825,80.239906 70.042274,80.994087 
	C70.017273,84.626678 69.768600,88.279060 70.087318,91.881241 
	C70.200478,93.160210 71.693619,94.317070 73.152313,95.260544 
	C74.230873,94.960678 74.713921,94.929947 75.196968,94.899216 
	C77.512093,95.185081 79.827217,95.470940 82.519104,95.769836 
z"/>
<path fill="#88D6F5" opacity="1.000000" stroke="none" 
	d="
M98.028748,67.959694 
	C98.028748,67.959694 97.955475,67.605408 98.149567,67.194687 
	C97.406021,65.864891 96.611923,64.431747 95.504051,64.122429 
	C92.084763,63.167770 88.545753,62.641945 85.017395,61.710888 
	C84.981552,61.472218 84.964920,60.989811 85.344673,60.961571 
	C88.135712,59.986904 90.546997,59.040478 92.865952,58.336296 
	C93.448463,59.130318 94.063766,60.039940 94.809761,60.164040 
	C96.733078,60.483997 99.209290,59.746555 100.578896,60.701656 
	C104.604591,63.508987 105.047623,61.498512 105.039604,58.060593 
	C105.026741,52.544476 105.330940,47.007244 104.913269,41.523716 
	C104.771027,39.656406 103.101990,36.640339 101.704262,36.372288 
	C97.605286,35.586205 93.291962,35.917767 88.731354,35.790733 
	C87.959137,35.778770 87.518166,35.787636 86.955322,35.652477 
	C86.530594,35.642002 86.227722,35.775551 85.663681,36.124588 
	C85.218384,37.218849 85.034279,38.097626 84.574203,38.982311 
	C83.930397,38.984280 83.562553,38.980335 83.149857,38.573807 
	C84.797218,35.909683 81.881699,30.791286 87.553177,30.996971 
	C88.325150,30.552031 89.097122,30.107092 90.238953,29.411182 
	C92.771606,29.802277 94.934395,30.444344 97.340050,31.374104 
	C101.260574,32.744320 104.938232,33.826843 109.001350,35.022823 
	C109.992493,34.420967 111.983040,33.212238 113.973587,32.003510 
	C117.478966,31.337006 120.984337,30.670500 124.847153,29.908649 
	C125.512962,29.957428 125.739929,30.183340 125.714401,30.750786 
	C126.352409,31.687864 127.161530,32.365192 127.981430,33.368805 
	C127.994209,34.130772 127.996185,34.566452 127.714478,35.122856 
	C126.258469,34.856331 125.086136,34.469090 123.612083,34.072029 
	C122.906281,34.078606 122.502205,34.094997 121.858093,34.176773 
	C121.313538,34.413292 121.108299,34.665295 120.601006,35.015614 
	C119.390129,35.204086 118.580872,35.521179 117.771011,35.522682 
	C112.034225,35.533325 110.426926,38.654613 110.880775,43.920742 
	C111.251381,48.220905 111.034294,52.571724 110.888863,57.080177 
	C110.190605,58.054249 109.681259,58.848228 109.171921,59.642204 
	C108.677345,59.470646 108.182770,59.299084 107.688194,59.127525 
	C108.126709,61.109859 108.565224,63.092194 109.029037,65.377075 
	C109.076347,65.880821 109.098351,66.082024 108.992416,66.473785 
	C108.656281,66.903259 108.401924,67.073090 107.697266,67.132378 
	C106.482536,67.082619 105.671959,67.074318 104.898819,67.039894 
	C104.936256,67.013779 104.999649,67.079475 104.846535,66.849365 
	C104.129158,66.801041 103.564896,66.982841 102.752533,67.442749 
	C101.012535,67.800476 99.520645,67.880089 98.028748,67.959694 
z"/>
<path fill="#A7E5FA" opacity="1.000000" stroke="none" 
	d="
M123.913811,34.081848 
	C125.086136,34.469090 126.258469,34.856331 127.715164,35.440556 
	C128.243958,36.404621 128.488373,37.171703 128.732788,37.938786 
	C128.761780,38.713848 128.790787,39.488914 128.650986,40.748718 
	C128.335236,41.556313 128.431335,41.805065 128.770462,41.979713 
	C128.807129,43.046745 128.843796,44.113777 128.451477,45.589432 
	C125.663895,46.105125 124.109779,46.318218 126.460335,49.111973 
	C127.503456,50.351788 127.487328,52.482803 127.581261,54.288929 
	C123.433380,54.304333 119.656250,54.240093 115.924438,53.876637 
	C115.986145,53.377621 116.002533,53.177822 116.358124,52.924969 
	C122.440132,47.890278 124.114838,41.346260 123.913811,34.081848 
z"/>
<path fill="#A1D7FC" opacity="1.000000" stroke="none" 
	d="
M127.952011,54.209290 
	C127.487328,52.482803 127.503456,50.351788 126.460335,49.111973 
	C124.109779,46.318218 125.663895,46.105125 128.396133,45.986809 
	C128.865829,48.679405 128.961884,51.383251 129.139557,54.530273 
	C129.221176,54.973454 129.100082,55.088081 128.849915,55.060333 
	C128.383820,54.758152 128.167923,54.483723 127.952011,54.209290 
z"/>
<path fill="#BAE1F4" opacity="1.000000" stroke="none" 
	d="
M127.970642,33.042519 
	C127.161530,32.365192 126.352409,31.687864 125.811920,30.974503 
	C127.035049,31.376598 127.989548,31.814726 128.682434,32.632328 
	C128.420807,33.011803 127.970642,33.042519 127.970642,33.042519 
z"/>
<path fill="#A1D7FC" opacity="1.000000" stroke="none" 
	d="
M127.981430,33.368805 
	C127.970642,33.042519 128.420807,33.011803 128.645203,32.989380 
	C128.872284,34.352139 128.874985,35.737320 128.805237,37.530640 
	C128.488373,37.171703 128.243958,36.404621 127.998856,35.319839 
	C127.996185,34.566452 127.994209,34.130772 127.981430,33.368805 
z"/>
<path fill="#A1D7FC" opacity="1.000000" stroke="none" 
	d="
M128.807785,41.741234 
	C128.431335,41.805065 128.335236,41.556313 128.602295,41.134647 
	C128.722412,41.035835 128.845108,41.502750 128.807785,41.741234 
z"/>
<path fill="#FFFFFF" opacity="1.000000" stroke="none" 
	d="
M132.829025,48.196774 
	C133.081802,48.130318 133.285889,48.309765 133.461700,48.513615 
	C133.475830,48.530014 133.295380,48.714249 133.006653,48.892445 
	C132.796310,48.792583 132.784683,48.620770 132.829025,48.196774 
z"/>
<path fill="#88D7F3" opacity="1.000000" stroke="none" 
	d="
M109.120361,66.283234 
	C109.098351,66.082024 109.076347,65.880821 109.217804,65.082939 
	C113.517830,62.865822 117.067924,60.284714 121.748299,59.315197 
	C125.054352,58.630367 127.760345,57.031723 130.978912,59.052711 
	C131.477142,59.396515 131.975372,59.740318 132.803116,60.479889 
	C137.096100,65.283485 141.059570,69.691315 145.023041,74.099144 
	C146.581833,75.884132 148.140625,77.669128 149.623337,80.003960 
	C145.270569,79.608383 140.993866,78.662964 136.731293,77.720673 
	C136.771774,78.532387 136.857956,80.260788 136.557831,81.994751 
	C131.961182,82.973564 131.205276,86.636162 129.788620,90.211136 
	C128.035187,91.951553 126.482765,93.421700 124.930351,94.891838 
	C122.730881,97.397079 120.531403,99.902313 118.166916,102.706734 
	C116.907959,102.757713 115.814034,102.509521 114.419746,102.099365 
	C114.119392,101.937408 114.087563,101.953926 114.110222,101.618301 
	C115.788399,99.217697 117.443916,97.152725 119.322182,95.057068 
	C119.544930,95.026390 119.992310,94.968048 120.216576,94.879333 
	C120.712738,94.586998 120.875832,94.317520 120.948692,93.973839 
	C120.967270,93.965500 120.980293,93.926903 121.197151,93.835251 
	C121.691887,93.564674 121.872169,93.315216 122.129684,92.710754 
	C123.181305,89.829468 124.058113,87.232635 125.037041,84.333374 
	C126.236549,84.456963 127.881042,84.626396 129.365555,84.779350 
	C130.644333,81.957512 122.283295,78.054413 132.448196,76.815552 
	C128.015823,72.042160 124.373711,67.952766 120.488594,64.108994 
	C119.879181,63.506065 118.114784,63.794647 116.974701,64.059509 
	C114.327271,64.674561 111.734993,65.527016 109.120361,66.283234 
z"/>
<path fill="#36AEE2" opacity="1.000000" stroke="none" 
	d="
M130.945450,58.728615 
	C127.760345,57.031723 125.054352,58.630367 121.748299,59.315197 
	C117.067924,60.284714 113.517830,62.865822 109.192490,64.780396 
	C108.565224,63.092194 108.126709,61.109859 107.688194,59.127525 
	C108.182770,59.299084 108.677345,59.470646 109.171921,59.642204 
	C109.681259,58.848228 110.190605,58.054249 111.243797,57.133087 
	C112.710098,56.115532 113.632545,55.225163 114.773895,54.298962 
	C115.285896,54.210381 115.581345,54.181286 115.879120,54.175854 
	C119.656250,54.240093 123.433380,54.304333 127.581261,54.288933 
	C128.167923,54.483723 128.383820,54.758152 128.848236,55.143688 
	C129.701828,56.304703 130.306915,57.354614 130.945450,58.728615 
z"/>
<path fill="#3DB0D8" opacity="1.000000" stroke="none" 
	d="
M136.944153,81.989197 
	C136.857956,80.260788 136.771774,78.532387 136.731293,77.720673 
	C140.993866,78.662964 145.270569,79.608383 149.817017,80.263474 
	C150.552521,79.724083 151.018265,79.475021 151.731537,79.131172 
	C152.174698,80.250267 152.370316,81.464149 152.040375,82.796341 
	C151.514832,82.914650 151.051544,82.916573 150.646362,82.897949 
	C145.475632,81.389626 141.126480,82.446404 137.008820,85.014709 
	C136.988998,84.989464 136.946106,84.941719 136.923431,84.573067 
	C136.915207,83.466011 136.929672,82.727600 136.944153,81.989197 
z"/>
<path fill="#CEE6F0" opacity="1.000000" stroke="none" 
	d="
M145.002640,73.742172 
	C141.059570,69.691315 137.096100,65.283485 133.114395,60.547432 
	C137.058182,64.607872 141.020218,68.996536 145.002640,73.742172 
z"/>
<path fill="#69C4F3" opacity="1.000000" stroke="none" 
	d="
M125.180634,95.094040 
	C126.482765,93.421700 128.035187,91.951553 130.055954,90.424599 
	C131.114624,93.496536 133.181244,92.560806 134.954803,91.846184 
	C139.620026,89.966385 144.233673,87.958649 148.867874,86.001869 
	C148.776154,86.657761 148.930237,87.584938 148.553528,87.926270 
	C145.750137,90.466240 142.841492,92.890030 140.046387,95.701736 
	C140.126907,96.053200 140.080811,96.032974 139.703094,95.981705 
	C137.890045,97.253525 136.454727,98.576599 135.019409,99.899673 
	C135.361069,102.671547 134.171326,102.436676 131.943680,101.982361 
	C129.696609,101.524078 127.234383,102.120804 124.505119,102.239006 
	C123.805832,101.600182 123.050797,100.838387 123.203903,100.379852 
	C123.787453,98.632294 124.663902,96.982544 125.180634,95.094040 
z"/>
<path fill="#82D6F8" opacity="1.000000" stroke="none" 
	d="
M149.238846,85.955513 
	C144.233673,87.958649 139.620026,89.966385 134.954803,91.846184 
	C133.181244,92.560806 131.114624,93.496536 130.256973,90.154312 
	C131.205276,86.636162 131.961182,82.973564 136.557831,81.994751 
	C136.929672,82.727600 136.915207,83.466011 136.627563,84.562798 
	C135.827179,85.036057 135.300003,85.150940 134.772812,85.265816 
	C134.842010,85.476158 134.911209,85.686501 134.980423,85.896843 
	C135.663162,85.611214 136.345901,85.325584 137.028641,85.039955 
	C141.126480,82.446404 145.475632,81.389626 150.647583,83.253716 
	C151.066452,84.330521 151.078949,85.032936 151.091446,85.735359 
	C150.597565,85.793297 150.103699,85.851227 149.238846,85.955513 
z"/>
<path fill="#73C2DE" opacity="1.000000" stroke="none" 
	d="
M151.381607,85.612823 
	C151.078949,85.032936 151.066452,84.330521 151.052750,83.272339 
	C151.051544,82.916573 151.514832,82.914650 151.744629,82.942421 
	C151.873550,83.810226 151.772659,84.650253 151.381607,85.612823 
z"/>
<path fill="#2CACDD" opacity="1.000000" stroke="none" 
	d="
M113.651215,31.860023 
	C111.983040,33.212238 109.992493,34.420967 109.001350,35.022823 
	C104.938232,33.826843 101.260574,32.744320 97.632469,31.200024 
	C99.125725,30.101860 100.569427,29.465471 102.013130,28.829082 
	C105.785034,29.791571 109.556938,30.754053 113.651215,31.860023 
z"/>
<path fill="#D3F0FA" opacity="1.000000" stroke="none" 
	d="
M102.230110,28.589167 
	C100.569427,29.465471 99.125725,30.101860 97.389610,30.912331 
	C94.934395,30.444344 92.771606,29.802277 90.229752,29.188263 
	C89.096558,29.046286 88.342430,28.876257 86.590691,28.481304 
	C88.220566,28.106249 88.816414,27.969137 89.720428,27.727436 
	C94.715775,27.411160 99.402954,27.199469 104.547447,26.924805 
	C105.004753,26.861834 105.451042,26.972445 105.674896,27.024361 
	C104.748192,27.500603 103.597641,27.924927 102.230110,28.589167 
z"/>
<path fill="#F0FBFB" opacity="1.000000" stroke="none" 
	d="
M87.281860,30.715630 
	C81.881699,30.791286 84.797218,35.909683 83.090866,39.041855 
	C83.056892,45.677929 82.918022,51.447304 83.108376,57.205791 
	C83.151237,58.502380 84.342789,59.760998 85.006508,61.015919 
	C85.007462,60.994743 84.964920,60.989811 84.964920,60.989811 
	C84.964920,60.989811 84.981552,61.472218 84.964188,62.038265 
	C84.292656,63.078442 83.638496,63.552570 82.984329,64.026695 
	C82.612617,63.636642 82.240898,63.246586 81.889992,62.093506 
	C81.707191,57.211296 81.503593,53.092110 81.282669,48.515678 
	C81.275589,44.402119 81.285835,40.745811 81.508163,36.782845 
	C81.807297,34.980106 81.894363,33.484024 81.981422,31.987944 
	C83.657791,31.470058 85.334167,30.952173 87.281860,30.715630 
z"/>
<path fill="#B3D8F1" opacity="1.000000" stroke="none" 
	d="
M81.765007,32.019871 
	C81.894363,33.484024 81.807297,34.980106 81.412003,36.392410 
	C81.035019,35.243153 80.966263,34.177673 80.897507,33.112194 
	C80.923805,32.939514 80.950111,32.766830 81.044540,32.341557 
	C81.112671,32.088963 81.548592,32.051800 81.765007,32.019871 
z"/>
<path fill="#1CA5E1" opacity="1.000000" stroke="none" 
	d="
M80.589706,33.382545 
	C80.966263,34.177673 81.035019,35.243153 81.199928,36.699066 
	C81.285835,40.745811 81.275589,44.402119 81.159653,48.966240 
	C81.052841,53.912174 81.051704,57.950298 81.050575,61.988422 
	C80.868111,61.991226 80.685646,61.994034 80.230576,61.970642 
	C80.065948,52.513927 80.173927,43.083412 80.589706,33.382545 
z"/>
<path fill="#C5E5F7" opacity="1.000000" stroke="none" 
	d="
M119.099434,95.087753 
	C117.443916,97.152725 115.788399,99.217697 114.103157,101.610214 
	C113.431747,101.696747 112.790054,101.455734 111.801514,101.202499 
	C110.395164,100.301323 109.335670,99.412346 108.412643,98.260826 
	C109.683495,97.721413 110.817879,97.444550 112.168884,96.852844 
	C114.623489,96.054588 116.861458,95.571175 119.099434,95.087753 
z"/>
<path fill="#CAEDF4" opacity="1.000000" stroke="none" 
	d="
M94.055115,101.055801 
	C94.836388,101.287811 95.617661,101.519829 96.708206,101.787292 
	C99.512611,101.416000 102.007736,101.009254 105.073349,100.349106 
	C106.052101,100.126755 106.460365,100.157799 106.868622,100.188843 
	C107.444351,100.583725 108.020081,100.978600 108.734207,101.595398 
	C103.863411,102.301834 98.854202,102.786346 93.542931,102.819313 
	C93.512276,101.930443 93.783691,101.493118 94.055115,101.055801 
z"/>
<path fill="#6BC8E9" opacity="1.000000" stroke="none" 
	d="
M94.024475,101.029877 
	C93.783691,101.493118 93.512276,101.930443 93.196289,102.621872 
	C92.435059,102.490158 91.718407,102.104347 91.319206,101.365639 
	C92.400810,100.994011 93.164955,100.975273 93.929108,100.956528 
	C93.929108,100.956535 93.993843,101.003967 94.024475,101.029877 
z"/>
<path fill="#64C3F2" opacity="1.000000" stroke="none" 
	d="
M93.727188,100.696663 
	C93.164955,100.975273 92.400810,100.994011 91.250473,101.033638 
	C90.864296,101.054527 90.449432,101.062508 90.242569,101.074608 
	C91.198891,100.870071 92.362076,100.653435 93.727188,100.696663 
z"/>
<path fill="#9DE3F3" opacity="1.000000" stroke="none" 
	d="
M111.952263,97.167679 
	C110.817879,97.444550 109.683495,97.721413 108.220505,98.018311 
	C107.891891,98.038345 107.457626,97.993553 107.163940,97.743889 
	C106.684174,97.248695 106.448181,97.068542 106.041199,96.694489 
	C105.629456,95.951317 105.338776,95.467430 105.306305,94.836418 
	C105.042519,93.778328 104.520508,92.867363 103.978714,91.639015 
	C103.632210,90.543114 103.305489,89.764595 103.010071,88.974762 
	C103.041374,88.963455 103.104820,88.983597 103.445236,89.007233 
	C105.537697,91.008301 107.289742,92.985748 108.901886,95.025314 
	C108.853416,95.044235 108.944855,95.001022 109.304100,95.102997 
	C110.365356,95.888016 111.158813,96.527847 111.952263,97.167679 
z"/>
<path fill="#3FADDE" opacity="1.000000" stroke="none" 
	d="
M106.162262,96.953781 
	C106.448181,97.068542 106.684174,97.248695 106.949280,97.704239 
	C106.998978,98.420013 106.969627,98.925766 106.904449,99.810181 
	C106.460365,100.157799 106.052101,100.126755 105.336838,100.085915 
	C104.698143,99.281799 104.366447,98.487473 104.361481,97.358856 
	C105.179558,97.000969 105.670914,96.977371 106.162262,96.953781 
z"/>
<path fill="#DEEFF8" opacity="1.000000" stroke="none" 
	d="
M70.404282,80.928551 
	C70.026825,80.239906 70.011375,79.485718 70.024986,78.354179 
	C70.593842,76.502312 71.133644,75.027802 71.673439,73.553284 
	C73.154793,76.234673 73.610184,78.766945 70.404282,80.928551 
z"/>
<path fill="#98DBF5" opacity="1.000000" stroke="none" 
	d="
M75.137985,94.565125 
	C74.713921,94.929947 74.230873,94.960678 73.386749,94.997070 
	C73.300278,94.162781 73.574890,93.322823 73.849495,92.482872 
	C74.259331,93.065590 74.669167,93.648315 75.137985,94.565125 
z"/>
<path fill="#2BA8DC" opacity="1.000000" stroke="none" 
	d="
M106.041199,96.694489 
	C105.670914,96.977371 105.179558,97.000969 104.319000,97.038223 
	C101.631332,93.947899 99.312881,90.843918 96.945374,87.384933 
	C97.158134,86.990013 97.419945,86.950096 98.271194,87.053444 
	C99.560127,87.809784 100.259636,88.422859 100.979721,89.018883 
	C101.000305,89.001831 100.961235,89.040611 100.956024,89.369293 
	C101.935394,90.849266 102.919975,92.000557 104.002571,93.404678 
	C104.416420,94.099525 104.732254,94.541534 105.048088,94.983551 
	C105.338776,95.467430 105.629456,95.951317 106.041199,96.694489 
z"/>
<path fill="#DCF8FB" opacity="1.000000" stroke="none" 
	d="
M112.168884,96.852844 
	C111.158813,96.527847 110.365356,95.888016 109.285950,95.124146 
	C109.000000,95.000107 109.041794,94.963188 109.041794,94.963188 
	C107.289742,92.985748 105.537697,91.008301 103.380318,88.681351 
	C102.307144,87.232552 101.639313,86.133270 100.971481,85.033989 
	C100.971481,85.033989 100.910591,84.580933 100.969116,83.971222 
	C101.718948,80.430550 102.410248,77.499573 103.177467,74.246765 
	C107.309967,74.090202 108.340797,71.100243 108.101418,67.173836 
	C108.401924,67.073090 108.656281,66.903259 108.992416,66.473785 
	C111.734993,65.527016 114.327271,64.674561 116.974701,64.059509 
	C118.114784,63.794647 119.879181,63.506065 120.488594,64.108994 
	C124.373711,67.952766 128.015823,72.042160 132.448196,76.815552 
	C122.283295,78.054413 130.644333,81.957512 129.365555,84.779350 
	C127.881042,84.626396 126.236549,84.456963 125.037041,84.333374 
	C124.058113,87.232635 123.181305,89.829468 121.919357,92.810028 
	C121.270233,93.378174 121.085587,93.622559 120.980293,93.926903 
	C120.980293,93.926903 120.967270,93.965500 120.743599,94.086365 
	C120.262108,94.403992 120.086235,94.657593 119.992310,94.968048 
	C119.992310,94.968048 119.544930,95.026390 119.322182,95.057068 
	C116.861458,95.571175 114.623489,96.054588 112.168884,96.852844 
z"/>
<path fill="#BAE1F4" opacity="1.000000" stroke="none" 
	d="
M107.697266,67.132378 
	C108.340797,71.100243 107.309967,74.090202 103.177467,74.246765 
	C102.410248,77.499573 101.718948,80.430550 100.953979,83.743164 
	C100.622269,82.051918 100.364212,79.979034 100.351685,77.314606 
	C100.576111,76.313362 100.555016,75.903664 100.533913,75.493965 
	C100.040932,75.753326 99.547951,76.012688 99.054970,76.272049 
	C98.498138,76.089737 97.941307,75.907425 97.474510,75.308594 
	C98.070518,74.283714 98.576500,73.675362 99.082481,73.067017 
	C99.082481,73.067017 98.995842,73.013527 99.335098,72.895813 
	C101.403366,70.874062 103.132370,68.970032 104.861374,67.066010 
	C105.671959,67.074318 106.482536,67.082619 107.697266,67.132378 
z"/>
<path fill="#25A8DD" opacity="1.000000" stroke="none" 
	d="
M104.898811,67.039886 
	C103.132370,68.970032 101.403366,70.874062 99.376511,72.927536 
	C98.893959,72.494576 98.709251,71.912163 98.287445,71.132492 
	C98.037788,70.192131 98.025223,69.449028 98.020706,68.332809 
	C99.520645,67.880089 101.012535,67.800476 103.088425,67.416565 
	C104.114830,67.101326 104.557243,67.090401 104.999649,67.079475 
	C104.999649,67.079475 104.936256,67.013779 104.898811,67.039886 
z"/>
<path fill="#34ABDC" opacity="1.000000" stroke="none" 
	d="
M95.001709,72.998917 
	C95.267242,74.735672 95.531029,76.473534 95.794815,78.211395 
	C95.257286,78.206909 94.719757,78.202415 94.182228,78.197922 
	C94.450859,76.712196 94.719490,75.226479 94.992081,73.372360 
	C94.996033,73.003967 94.999969,73.000023 95.001709,72.998917 
z"/>
<path fill="#6BC8E9" opacity="1.000000" stroke="none" 
	d="
M100.884247,85.217285 
	C101.639313,86.133270 102.307144,87.232552 103.039902,88.657715 
	C103.104820,88.983597 103.041374,88.963455 102.672073,88.962585 
	C101.855598,88.988022 101.408417,89.014313 100.961235,89.040611 
	C100.961235,89.040611 101.000305,89.001831 101.030403,88.691505 
	C100.768341,87.556618 100.476189,86.732056 100.184029,85.907494 
	C100.456055,85.820381 100.660378,85.651413 100.884247,85.217285 
z"/>
<path fill="#BAE1F4" opacity="1.000000" stroke="none" 
	d="
M100.033524,85.731369 
	C100.476189,86.732056 100.768341,87.556618 101.009827,88.708557 
	C100.259636,88.422859 99.560127,87.809784 98.662651,86.985779 
	C98.937462,86.368309 99.410240,85.961777 100.033524,85.731369 
z"/>
<path fill="#3DADE4" opacity="1.000000" stroke="none" 
	d="
M99.204399,76.460762 
	C99.547951,76.012688 100.040932,75.753326 100.533913,75.493965 
	C100.555016,75.903664 100.576111,76.313362 100.404510,76.903381 
	C99.890450,77.008789 99.604462,76.864044 99.204399,76.460762 
z"/>
<path fill="#25A8DD" opacity="1.000000" stroke="none" 
	d="
M98.733093,73.083359 
	C98.576500,73.675362 98.070518,74.283714 97.310867,75.057602 
	C97.499367,74.515327 97.941536,73.807518 98.733093,73.083359 
z"/>
<path fill="#D4ECF6" opacity="1.000000" stroke="none" 
	d="
M83.263107,64.290871 
	C83.638496,63.552570 84.292656,63.078442 85.000031,62.276936 
	C88.545753,62.641945 92.084763,63.167770 95.504051,64.122429 
	C96.611923,64.431747 97.406021,65.864891 98.115898,67.016968 
	C93.106064,66.351646 88.323975,65.453346 83.263107,64.290871 
z"/>
<path fill="#B3D8F1" opacity="1.000000" stroke="none" 
	d="
M81.222595,62.069851 
	C81.051704,57.950298 81.052841,53.912174 81.176979,49.423489 
	C81.503593,53.092110 81.707191,57.211296 81.830566,61.808594 
	C81.750336,62.286713 81.394608,62.151279 81.222595,62.069851 
z"/>
<path fill="#B3E6F6" opacity="1.000000" stroke="none" 
	d="
M135.380737,99.912521 
	C136.454727,98.576599 137.890045,97.253525 139.679321,95.989410 
	C138.602875,97.340698 137.172470,98.633034 135.380737,99.912521 
z"/>
<path fill="#DAFAFD" opacity="1.000000" stroke="none" 
	d="
M89.062599,35.811554 
	C93.291962,35.917767 97.605286,35.586205 101.704262,36.372288 
	C103.101990,36.640339 104.771027,39.656406 104.913269,41.523716 
	C105.330940,47.007244 105.026741,52.544476 105.039604,58.060593 
	C105.047623,61.498512 104.604591,63.508987 100.578896,60.701656 
	C99.209290,59.746555 96.733078,60.483997 94.809761,60.164040 
	C94.063766,60.039940 93.448463,59.130318 92.882370,58.063786 
	C92.996292,57.367729 93.001465,57.186432 93.144737,56.948990 
	C93.186813,56.926334 93.090797,56.959820 92.650024,56.960484 
	C90.338112,56.402485 88.370964,55.877312 85.999390,55.244167 
	C85.999390,53.608746 85.999390,51.305729 86.385391,48.917641 
	C87.535133,44.492229 88.298866,40.151894 89.062599,35.811554 
z"/>
<path fill="#D9F9FB" opacity="1.000000" stroke="none" 
	d="
M114.555000,54.334793 
	C113.632545,55.225163 112.710098,56.115532 111.432709,56.952988 
	C111.034294,52.571724 111.251381,48.220905 110.880775,43.920742 
	C110.426926,38.654613 112.034225,35.533325 117.771011,35.522682 
	C118.580872,35.521179 119.390129,35.204086 120.831886,34.935745 
	C121.751968,34.662819 121.963310,34.420475 122.098129,34.111393 
	C122.502205,34.094997 122.906281,34.078606 123.612083,34.072029 
	C124.114838,41.346260 122.440132,47.890278 116.157364,52.711662 
	C115.263268,53.145870 114.909134,53.740334 114.555000,54.334793 
z"/>
<path fill="#D7F7F2" opacity="1.000000" stroke="none" 
	d="
M85.999390,49.002712 
	C85.999390,51.305729 85.999390,53.608746 85.999390,55.244167 
	C88.370964,55.877312 90.338112,56.402485 92.652634,56.963829 
	C93.000000,57.000000 93.006638,57.005135 93.006638,57.005135 
	C93.001465,57.186432 92.996292,57.367729 92.974701,57.821541 
	C90.546997,59.040478 88.135712,59.986904 85.344673,60.961571 
	C84.964920,60.989811 85.007462,60.994743 85.008789,60.544235 
	C84.956795,53.054619 84.903481,46.015511 84.850166,38.976402 
	C85.034279,38.097626 85.218384,37.218849 85.687225,36.153164 
	C85.971962,35.966255 86.021446,36.021374 86.013809,36.435387 
	C86.003685,38.231411 86.001190,39.613419 85.996567,41.439949 
	C85.996078,44.257217 85.997734,46.629967 85.999390,49.002712 
z"/>
<path fill="#92D8F4" opacity="1.000000" stroke="none" 
	d="
M84.574203,38.982311 
	C84.903481,46.015511 84.956795,53.054619 85.007835,60.565411 
	C84.342789,59.760998 83.151237,58.502380 83.108376,57.205791 
	C82.918022,51.447304 83.056892,45.677929 83.135704,39.444443 
	C83.562553,38.980335 83.930397,38.984280 84.574203,38.982311 
z"/>
<path fill="#EAF9FB" opacity="1.000000" stroke="none" 
	d="
M86.385391,48.917641 
	C85.997734,46.629967 85.996078,44.257217 86.277977,41.195152 
	C86.708923,39.010796 86.856316,37.515759 87.024361,35.965416 
	C87.045013,35.910107 87.077187,35.796501 87.077187,35.796501 
	C87.518166,35.787636 87.959137,35.778770 88.731354,35.790733 
	C88.298866,40.151894 87.535133,44.492229 86.385391,48.917641 
z"/>
<path fill="#BAE1F4" opacity="1.000000" stroke="none" 
	d="
M104.846535,66.849365 
	C104.557243,67.090401 104.114830,67.101326 103.336533,67.138443 
	C103.564896,66.982841 104.129158,66.801041 104.846535,66.849365 
z"/>
<path fill="#A7E5FA" opacity="1.000000" stroke="none" 
	d="
M121.858093,34.176773 
	C121.963310,34.420475 121.751968,34.662819 121.233223,34.918297 
	C121.108299,34.665295 121.313538,34.413292 121.858093,34.176773 
z"/>
<path fill="#D7F7F2" opacity="1.000000" stroke="none" 
	d="
M85.948410,35.937675 
	C86.227722,35.775551 86.530594,35.642002 86.955322,35.652477 
	C87.077187,35.796501 87.045013,35.910107 86.778770,35.960350 
	C86.512527,36.010597 86.021446,36.021374 86.021446,36.021374 
	C86.021446,36.021374 85.971962,35.966255 85.948410,35.937675 
z"/>
<path fill="#88D6F5" opacity="1.000000" stroke="none" 
	d="
M114.773895,54.298962 
	C114.909134,53.740334 115.263268,53.145870 115.818161,52.764717 
	C116.002533,53.177822 115.986145,53.377621 115.924438,53.876637 
	C115.581345,54.181286 115.285896,54.210381 114.773895,54.298962 
z"/>
<path fill="#C5E5F7" opacity="1.000000" stroke="none" 
	d="
M121.197151,93.835251 
	C121.085587,93.622559 121.270233,93.378174 121.744537,93.094482 
	C121.872169,93.315216 121.691887,93.564674 121.197151,93.835251 
z"/>
<path fill="#C5E5F7" opacity="1.000000" stroke="none" 
	d="
M120.216576,94.879333 
	C120.086235,94.657593 120.262108,94.403992 120.725021,94.094711 
	C120.875832,94.317520 120.712738,94.586998 120.216576,94.879333 
z"/>
<path fill="#3DB0D8" opacity="1.000000" stroke="none" 
	d="
M137.008820,85.014709 
	C136.345901,85.325584 135.663162,85.611214 134.980423,85.896843 
	C134.911209,85.686501 134.842010,85.476158 134.772812,85.265816 
	C135.300003,85.150940 135.827179,85.036057 136.650238,84.931450 
	C136.946106,84.941719 136.988998,84.989464 137.008820,85.014709 
z"/>
<path fill="#BAE1F4" opacity="1.000000" stroke="none" 
	d="
M100.956024,89.369293 
	C101.408417,89.014313 101.855598,88.988022 102.640778,88.973900 
	C103.305489,89.764595 103.632210,90.543114 103.972260,91.939484 
	C103.958580,92.755524 103.931564,92.953690 103.904556,93.151855 
	C102.919975,92.000557 101.935394,90.849266 100.956024,89.369293 
z"/>
<path fill="#ECEAFD" opacity="1.000000" stroke="none" 
	d="
M104.002571,93.404678 
	C103.931564,92.953690 103.958580,92.755524 103.992050,92.256882 
	C104.520508,92.867363 105.042519,93.778328 105.306305,94.836418 
	C104.732254,94.541534 104.416420,94.099525 104.002571,93.404678 
z"/>
<path fill="#B3E6F6" opacity="1.000000" stroke="none" 
	d="
M109.018150,94.978958 
	C108.944855,95.001022 108.853416,95.044235 108.901886,95.025314 
	C109.041794,94.963188 109.000000,95.000107 109.018150,94.978958 
z"/>
<path fill="#D7F7F2" opacity="1.000000" stroke="none" 
	d="
M92.997391,56.996655 
	C93.090797,56.959820 93.186813,56.926334 93.144737,56.948990 
	C93.006638,57.005135 93.000000,57.000000 92.997391,56.996655 
z"/>
<path fill="#DAFAFD" opacity="1.000000" stroke="none" 
	d="
M86.013809,36.435387 
	C86.021446,36.021374 86.512527,36.010597 86.758118,36.015659 
	C86.856316,37.515759 86.708923,39.010796 86.280121,40.750633 
	C86.001190,39.613419 86.003685,38.231411 86.013809,36.435387 
z"/>
</svg>